<svg width="345" height="300" viewBox="0 0 345 300" fill="none" xmlns="http://www.w3.org/2000/svg">
<g clip-path="url(#clip0_17_88)">
<path d="M311.065 156.125C311.11 193.247 296.738 228.94 270.969 255.702C269.416 257.326 267.82 258.911 266.183 260.456C263.688 262.825 261.11 265.103 258.448 267.288C233.543 287.772 202.453 299.283 170.192 299.964C169.117 299.988 168.038 300 166.955 300C141.226 300 108.865 286.28 79.4977 267.288C77.0681 265.717 74.66 264.109 72.2736 262.465C71.1581 261.704 70.048 260.932 68.9434 260.149C57.6168 252.164 46.8656 243.396 36.7692 233.908C30.1586 227.714 23.9597 221.097 18.2118 214.098C-4.35317 186.31 -9.33019 161.272 22.84 156.125C26.6488 155.517 30.3454 154.868 33.9298 154.177C39.1218 153.181 44.0907 152.105 48.8365 150.95C55.2292 149.399 61.2351 147.717 66.8544 145.904C68.7446 145.296 70.5916 144.677 72.3953 144.045C99.0611 134.695 116.909 122.502 129.057 109.272C131.118 107.033 133.017 104.766 134.756 102.473C137.416 98.982 139.833 95.3126 141.988 91.4905C144.964 86.18 147.462 80.6172 149.456 74.8672L149.566 74.5514C159.232 46.715 156.291 20.8953 166.955 12.2536C212.539 -24.6901 269.29 27.9212 295.927 89.9638C297.27 93.09 298.533 96.2352 299.716 99.3992C300.247 100.812 300.76 102.228 301.253 103.647C302.551 107.344 303.729 111.051 304.786 114.767C305.192 116.184 305.579 117.6 305.946 119.015C306.34 120.542 306.717 122.064 307.066 123.587C309.658 134.735 311.065 145.73 311.065 156.125Z" fill="#F2F2F2"/>
<path d="M170.192 299.964C169.117 299.988 168.038 300 166.955 300C141.226 300 108.865 286.28 79.4978 267.288C77.0681 265.717 74.66 264.109 72.2736 262.465L74.3666 249.75L137.729 241.351L169.53 265.628L170.192 299.964Z" fill="#2F2E41"/>
<path d="M173.242 72.9114H164.213C163.933 72.9115 163.665 73.0225 163.467 73.2199C163.269 73.4173 163.158 73.685 163.158 73.9642V82.9825C163.158 83.1205 163.186 83.2571 163.239 83.3846C163.292 83.512 163.37 83.6278 163.467 83.7252C163.565 83.8226 163.682 83.8998 163.81 83.9523C163.937 84.0049 164.074 84.0317 164.213 84.0313H173.242C173.521 84.0314 173.789 83.9211 173.986 83.7245C174.184 83.5279 174.296 83.261 174.297 82.9825V73.9642C174.296 73.6852 174.184 73.4179 173.987 73.2206C173.789 73.0234 173.521 72.9122 173.242 72.9114Z" fill="#A1E3FF"/>
<path d="M173.242 88.2792H164.213C163.933 88.2794 163.665 88.3903 163.467 88.5878C163.269 88.7852 163.158 89.0529 163.158 89.3321V98.3504C163.158 98.4884 163.186 98.6251 163.239 98.7525C163.292 98.88 163.37 98.9957 163.467 99.0931C163.565 99.1905 163.682 99.2677 163.81 99.3202C163.937 99.3728 164.074 99.3996 164.213 99.3992H173.242C173.521 99.3993 173.789 99.289 173.986 99.0924C174.184 98.8958 174.296 98.629 174.297 98.3504V89.3321C174.296 89.0531 174.184 88.7858 173.987 88.5885C173.789 88.3912 173.521 88.28 173.242 88.2792Z" fill="#E6E6E6"/>
<path d="M173.242 103.647H164.213C163.933 103.647 163.665 103.758 163.467 103.956C163.269 104.153 163.158 104.421 163.158 104.7V113.714C163.158 113.853 163.185 113.99 163.238 114.118C163.291 114.245 163.368 114.362 163.466 114.459C163.564 114.557 163.681 114.635 163.809 114.688C163.937 114.74 164.074 114.767 164.213 114.767H173.242C173.522 114.767 173.79 114.656 173.987 114.459C174.185 114.261 174.296 113.993 174.297 113.714V104.7C174.296 104.421 174.184 104.154 173.987 103.956C173.789 103.759 173.521 103.648 173.242 103.647Z" fill="#E6E6E6"/>
<path d="M174.28 119.882C174.235 119.639 174.107 119.42 173.917 119.262C173.728 119.103 173.489 119.016 173.242 119.015H164.213C163.933 119.015 163.665 119.126 163.467 119.324C163.269 119.521 163.158 119.789 163.158 120.068V129.082C163.158 129.22 163.185 129.358 163.238 129.485C163.291 129.613 163.368 129.729 163.466 129.827C163.564 129.925 163.681 130.003 163.809 130.055C163.937 130.108 164.074 130.135 164.213 130.135H173.242C173.522 130.135 173.79 130.024 173.987 129.827C174.185 129.629 174.296 129.361 174.297 129.082V120.068C174.297 120.005 174.292 119.943 174.28 119.882Z" fill="#E6E6E6"/>
<path d="M173.652 134.464C173.522 134.41 173.382 134.383 173.242 134.383H164.213C164.074 134.383 163.937 134.41 163.809 134.463C163.681 134.515 163.564 134.593 163.466 134.691C163.368 134.789 163.291 134.905 163.238 135.033C163.185 135.16 163.158 135.297 163.158 135.436V144.45C163.157 144.588 163.184 144.726 163.237 144.854C163.29 144.982 163.368 145.098 163.466 145.196C163.564 145.294 163.68 145.371 163.808 145.424C163.937 145.477 164.074 145.504 164.213 145.503H173.242C173.522 145.503 173.79 145.392 173.988 145.194C174.185 144.997 174.296 144.729 174.297 144.45V135.436C174.296 135.229 174.235 135.026 174.12 134.853C174.005 134.681 173.843 134.545 173.652 134.464Z" fill="#E6E6E6"/>
<path d="M192.209 72.9114H183.18C182.9 72.9115 182.632 73.0225 182.434 73.2199C182.236 73.4173 182.125 73.685 182.125 73.9642V82.9825C182.125 83.1205 182.153 83.2571 182.206 83.3846C182.259 83.512 182.337 83.6278 182.435 83.7252C182.532 83.8226 182.649 83.8998 182.777 83.9523C182.904 84.0049 183.041 84.0317 183.18 84.0313H192.209C192.488 84.0314 192.756 83.9211 192.953 83.7245C193.151 83.5279 193.263 83.261 193.264 82.9825V73.9642C193.263 73.6852 193.151 73.4179 192.954 73.2206C192.756 73.0234 192.488 72.9122 192.209 72.9114Z" fill="#E6E6E6"/>
<path d="M192.209 88.2792H183.18C182.9 88.2794 182.632 88.3903 182.434 88.5878C182.236 88.7852 182.125 89.0529 182.125 89.3321V98.3504C182.125 98.4884 182.153 98.6251 182.206 98.7525C182.259 98.88 182.337 98.9957 182.435 99.0931C182.532 99.1905 182.649 99.2677 182.777 99.3202C182.904 99.3728 183.041 99.3996 183.18 99.3992H192.209C192.488 99.3993 192.756 99.289 192.953 99.0924C193.151 98.8958 193.263 98.629 193.264 98.3504V89.3321C193.263 89.0531 193.151 88.7858 192.954 88.5885C192.756 88.3912 192.488 88.28 192.209 88.2792Z" fill="black"/>
<path d="M192.209 103.647H183.18C182.9 103.647 182.632 103.758 182.434 103.956C182.236 104.153 182.125 104.421 182.125 104.7V113.714C182.125 113.853 182.152 113.99 182.205 114.118C182.258 114.245 182.335 114.362 182.433 114.459C182.531 114.557 182.648 114.635 182.776 114.688C182.904 114.74 183.041 114.767 183.18 114.767H192.209C192.489 114.767 192.757 114.656 192.955 114.459C193.152 114.261 193.263 113.993 193.264 113.714V104.7C193.263 104.421 193.151 104.154 192.954 103.956C192.756 103.759 192.488 103.648 192.209 103.647Z" fill="black"/>
<path d="M192.209 119.015H183.18C182.959 119.015 182.743 119.085 182.564 119.214C182.385 119.344 182.251 119.526 182.182 119.736C182.144 119.843 182.125 119.955 182.125 120.068V129.082C182.125 129.22 182.152 129.358 182.205 129.485C182.258 129.613 182.335 129.729 182.433 129.827C182.531 129.925 182.648 130.003 182.776 130.055C182.904 130.108 183.041 130.135 183.18 130.135H192.209C192.489 130.135 192.757 130.024 192.955 129.826C193.152 129.629 193.263 129.361 193.264 129.082V120.068C193.263 119.789 193.151 119.522 192.954 119.324C192.756 119.127 192.488 119.016 192.209 119.015Z" fill="black"/>
<path d="M192.209 134.383H183.18C183.041 134.383 182.904 134.41 182.776 134.463C182.648 134.515 182.531 134.593 182.433 134.691C182.335 134.789 182.258 134.905 182.205 135.033C182.152 135.16 182.125 135.297 182.125 135.436V144.45C182.125 144.588 182.152 144.725 182.205 144.853C182.258 144.981 182.335 145.097 182.433 145.195C182.531 145.293 182.648 145.371 182.776 145.423C182.904 145.476 183.041 145.503 183.18 145.503H192.209C192.489 145.503 192.757 145.392 192.955 145.194C193.152 144.997 193.263 144.729 193.264 144.45V135.436C193.263 135.157 193.152 134.889 192.955 134.691C192.757 134.494 192.489 134.383 192.209 134.383Z" fill="#E6E6E6"/>
<path d="M211.176 72.9114H202.147C201.867 72.9115 201.599 73.0225 201.401 73.2199C201.203 73.4173 201.092 73.685 201.092 73.9642V82.9825C201.092 83.1205 201.12 83.2571 201.173 83.3846C201.226 83.512 201.304 83.6278 201.402 83.7252C201.5 83.8226 201.616 83.8998 201.744 83.9523C201.872 84.0049 202.008 84.0317 202.147 84.0313H211.176C211.455 84.0314 211.723 83.9211 211.92 83.7245C212.118 83.5279 212.23 83.261 212.231 82.9825V73.9642C212.23 73.6852 212.118 73.4179 211.921 73.2206C211.723 73.0234 211.455 72.9122 211.176 72.9114Z" fill="black"/>
<path d="M211.176 88.2792H202.147C201.867 88.2794 201.599 88.3903 201.401 88.5878C201.203 88.7852 201.092 89.0529 201.092 89.3321V98.3504C201.092 98.4884 201.12 98.6251 201.173 98.7525C201.226 98.88 201.304 98.9957 201.402 99.0931C201.5 99.1905 201.616 99.2677 201.744 99.3202C201.872 99.3728 202.008 99.3996 202.147 99.3992H211.176C211.455 99.3993 211.723 99.289 211.92 99.0924C212.118 98.8958 212.23 98.629 212.231 98.3504V89.3321C212.23 89.0531 212.118 88.7858 211.921 88.5885C211.723 88.3912 211.455 88.28 211.176 88.2792Z" fill="black"/>
<path d="M211.176 103.647H202.147C201.867 103.647 201.599 103.758 201.401 103.956C201.203 104.153 201.092 104.421 201.092 104.7V113.714C201.092 113.853 201.119 113.99 201.172 114.118C201.225 114.245 201.302 114.362 201.4 114.459C201.498 114.557 201.615 114.635 201.743 114.688C201.871 114.74 202.008 114.767 202.147 114.767H211.176C211.456 114.767 211.724 114.656 211.922 114.459C212.119 114.261 212.231 113.993 212.231 113.714V104.7C212.23 104.421 212.118 104.154 211.921 103.956C211.723 103.759 211.455 103.648 211.176 103.647Z" fill="#E6E6E6"/>
<path d="M211.176 119.015H202.147C201.867 119.015 201.599 119.126 201.401 119.324C201.203 119.521 201.092 119.789 201.092 120.068V129.082C201.092 129.22 201.119 129.358 201.172 129.485C201.225 129.613 201.302 129.729 201.4 129.827C201.498 129.925 201.615 130.003 201.743 130.055C201.871 130.108 202.008 130.135 202.147 130.135H211.176C211.456 130.135 211.724 130.024 211.922 129.827C212.119 129.629 212.231 129.361 212.231 129.082V120.068C212.23 119.789 212.118 119.522 211.921 119.324C211.723 119.127 211.455 119.016 211.176 119.015Z" fill="black"/>
<path d="M211.176 134.383H202.147C202.008 134.383 201.871 134.41 201.743 134.463C201.615 134.515 201.498 134.593 201.4 134.691C201.302 134.789 201.225 134.905 201.172 135.033C201.119 135.16 201.092 135.297 201.092 135.436V144.45C201.092 144.588 201.119 144.725 201.172 144.853C201.225 144.981 201.302 145.097 201.4 145.195C201.498 145.293 201.615 145.371 201.743 145.423C201.871 145.476 202.008 145.503 202.147 145.503H211.176C211.456 145.503 211.724 145.392 211.922 145.194C212.119 144.997 212.231 144.729 212.231 144.45V135.436C212.231 135.157 212.119 134.889 211.922 134.691C211.724 134.494 211.456 134.383 211.176 134.383Z" fill="black"/>
<path d="M230.143 72.9114H221.114C220.834 72.9115 220.566 73.0225 220.368 73.2199C220.17 73.4173 220.059 73.685 220.059 73.9642V82.9825C220.059 83.1205 220.087 83.2572 220.14 83.3846C220.193 83.5121 220.271 83.6278 220.369 83.7252C220.467 83.8226 220.583 83.8998 220.711 83.9523C220.839 84.0049 220.976 84.0317 221.114 84.0313H230.143C230.422 84.0314 230.69 83.9211 230.887 83.7245C231.085 83.5279 231.197 83.261 231.198 82.9825V73.9642C231.197 73.6852 231.085 73.4179 230.888 73.2206C230.69 73.0234 230.423 72.9122 230.143 72.9114Z" fill="black"/>
<path d="M230.143 88.2792H221.114C220.834 88.2794 220.566 88.3903 220.368 88.5878C220.17 88.7852 220.059 89.0529 220.059 89.3321V98.3504C220.059 98.4884 220.087 98.6251 220.14 98.7525C220.193 98.88 220.271 98.9957 220.369 99.0931C220.467 99.1905 220.583 99.2677 220.711 99.3202C220.839 99.3728 220.976 99.3996 221.114 99.3992H230.143C230.422 99.3993 230.69 99.289 230.887 99.0924C231.085 98.8958 231.197 98.629 231.198 98.3504V89.3321C231.197 89.0531 231.086 88.7858 230.888 88.5885C230.69 88.3912 230.423 88.28 230.143 88.2792Z" fill="#A1E3FF"/>
<path d="M230.143 103.647H221.114C220.834 103.647 220.566 103.758 220.368 103.956C220.17 104.153 220.059 104.421 220.059 104.7V113.714C220.059 113.853 220.086 113.99 220.139 114.118C220.192 114.245 220.269 114.362 220.367 114.459C220.465 114.557 220.582 114.635 220.71 114.688C220.838 114.74 220.975 114.767 221.114 114.767H230.143C230.423 114.767 230.691 114.656 230.889 114.459C231.086 114.261 231.198 113.993 231.198 113.714V104.7C231.197 104.421 231.086 104.154 230.888 103.956C230.69 103.759 230.423 103.648 230.143 103.647Z" fill="#A1E3FF"/>
<path d="M230.143 119.015H221.114C220.834 119.015 220.566 119.126 220.368 119.324C220.17 119.521 220.059 119.789 220.059 120.068V129.082C220.059 129.22 220.086 129.358 220.139 129.485C220.192 129.613 220.269 129.729 220.367 129.827C220.465 129.925 220.582 130.003 220.71 130.055C220.838 130.108 220.975 130.135 221.114 130.135H230.143C230.423 130.135 230.691 130.024 230.889 129.827C231.086 129.629 231.198 129.361 231.198 129.082V120.068C231.197 119.789 231.086 119.522 230.888 119.324C230.69 119.127 230.423 119.016 230.143 119.015Z" fill="#E6E6E6"/>
<path d="M230.143 134.383H221.114C220.975 134.383 220.838 134.41 220.71 134.463C220.582 134.515 220.465 134.593 220.367 134.691C220.269 134.789 220.192 134.905 220.139 135.033C220.086 135.16 220.059 135.297 220.059 135.436V144.45C220.059 144.588 220.086 144.725 220.139 144.853C220.192 144.981 220.27 145.097 220.367 145.195C220.465 145.293 220.582 145.371 220.71 145.423C220.838 145.476 220.975 145.503 221.114 145.503H230.143C230.423 145.503 230.691 145.392 230.889 145.194C231.086 144.997 231.198 144.729 231.198 144.45V135.436C231.198 135.157 231.086 134.889 230.889 134.691C230.691 134.494 230.423 134.383 230.143 134.383Z" fill="black"/>
<path d="M249.11 72.9114H240.077C239.798 72.9123 239.531 73.0237 239.334 73.221C239.137 73.4184 239.026 73.6856 239.026 73.9642V82.9825C239.026 83.2606 239.137 83.5274 239.334 83.724C239.531 83.9207 239.798 84.0313 240.077 84.0313H249.11C249.389 84.0314 249.657 83.9211 249.855 83.7245C250.052 83.5279 250.164 83.261 250.165 82.9825V73.9642C250.164 73.6852 250.053 73.4179 249.855 73.2206C249.657 73.0234 249.39 72.9122 249.11 72.9114Z" fill="#A1E3FF"/>
<path d="M249.11 88.2792H240.077C239.798 88.2802 239.53 88.3916 239.334 88.5889C239.137 88.7863 239.026 89.0535 239.026 89.3321V98.3504C239.026 98.6285 239.137 98.8953 239.334 99.092C239.531 99.2886 239.798 99.3991 240.077 99.3992H249.11C249.389 99.3993 249.657 99.289 249.855 99.0924C250.052 98.8958 250.164 98.629 250.165 98.3504V89.3321C250.164 89.0531 250.053 88.7858 249.855 88.5885C249.657 88.3912 249.39 88.28 249.11 88.2792Z" fill="#A1E3FF"/>
<path d="M249.11 103.647H240.077C239.798 103.648 239.531 103.76 239.334 103.957C239.137 104.154 239.026 104.421 239.026 104.7V113.714C239.026 113.852 239.053 113.989 239.105 114.117C239.158 114.244 239.235 114.36 239.333 114.458C239.43 114.556 239.546 114.634 239.674 114.687C239.802 114.74 239.939 114.767 240.077 114.767H249.11C249.39 114.767 249.658 114.656 249.856 114.459C250.053 114.261 250.165 113.993 250.165 113.714V104.7C250.164 104.421 250.053 104.154 249.855 103.956C249.657 103.759 249.39 103.648 249.11 103.647Z" fill="#A1E3FF"/>
<path d="M249.11 119.015H240.077C239.798 119.016 239.531 119.127 239.334 119.325C239.137 119.522 239.026 119.789 239.026 120.068V129.082C239.026 129.22 239.053 129.357 239.105 129.485C239.158 129.612 239.235 129.728 239.333 129.826C239.43 129.924 239.546 130.001 239.674 130.055C239.802 130.108 239.939 130.135 240.077 130.135H249.11C249.39 130.135 249.658 130.024 249.856 129.827C250.053 129.629 250.165 129.361 250.165 129.082V120.068C250.164 119.789 250.053 119.522 249.855 119.324C249.657 119.127 249.39 119.016 249.11 119.015Z" fill="black"/>
<path d="M249.11 134.383H240.077C239.939 134.383 239.802 134.41 239.674 134.463C239.546 134.516 239.43 134.594 239.333 134.692C239.235 134.79 239.158 134.906 239.105 135.033C239.053 135.161 239.026 135.298 239.026 135.436V144.45C239.026 144.588 239.053 144.725 239.105 144.852C239.158 144.98 239.235 145.096 239.333 145.194C239.43 145.292 239.546 145.369 239.674 145.422C239.802 145.475 239.939 145.503 240.077 145.503H249.11C249.39 145.503 249.658 145.392 249.856 145.194C250.053 144.997 250.165 144.729 250.165 144.45V135.436C250.165 135.157 250.053 134.889 249.856 134.691C249.658 134.494 249.39 134.383 249.11 134.383Z" fill="#E6E6E6"/>
<path d="M268.077 72.9114H259.044C258.765 72.9123 258.498 73.0237 258.301 73.221C258.104 73.4184 257.993 73.6856 257.993 73.9642V82.9825C257.993 83.2606 258.104 83.5274 258.301 83.724C258.498 83.9207 258.765 84.0313 259.044 84.0313H268.077C268.356 84.0314 268.624 83.9211 268.822 83.7245C269.019 83.5279 269.131 83.261 269.132 82.9825V73.9642C269.131 73.6852 269.02 73.4179 268.822 73.2206C268.624 73.0234 268.357 72.9122 268.077 72.9114Z" fill="#A1E3FF"/>
<path d="M268.077 88.2792H259.044C258.765 88.2802 258.498 88.3916 258.301 88.5889C258.104 88.7863 257.993 89.0535 257.993 89.3321V98.3504C257.993 98.6285 258.104 98.8953 258.301 99.092C258.498 99.2886 258.765 99.3991 259.044 99.3992H268.077C268.356 99.3993 268.624 99.289 268.822 99.0924C269.019 98.8958 269.131 98.6289 269.132 98.3504V89.3321C269.131 89.0531 269.02 88.7858 268.822 88.5885C268.624 88.3912 268.357 88.28 268.077 88.2792Z" fill="#A1E3FF"/>
<path d="M268.077 103.647H259.044C258.765 103.648 258.498 103.76 258.301 103.957C258.104 104.154 257.993 104.421 257.993 104.7V113.714C257.993 113.852 258.02 113.989 258.072 114.117C258.125 114.244 258.202 114.36 258.3 114.458C258.397 114.556 258.513 114.634 258.641 114.687C258.769 114.74 258.906 114.767 259.044 114.767H268.077C268.357 114.767 268.625 114.656 268.823 114.459C269.02 114.261 269.132 113.993 269.132 113.714V104.7C269.131 104.421 269.02 104.154 268.822 103.956C268.624 103.759 268.357 103.648 268.077 103.647Z" fill="black"/>
<path d="M268.077 119.015H259.044C258.765 119.016 258.498 119.127 258.301 119.325C258.104 119.522 257.993 119.789 257.993 120.068V129.082C257.993 129.22 258.02 129.357 258.072 129.485C258.125 129.612 258.202 129.728 258.3 129.826C258.397 129.924 258.513 130.001 258.641 130.055C258.769 130.108 258.906 130.135 259.044 130.135H268.077C268.357 130.135 268.625 130.024 268.823 129.826C269.021 129.629 269.132 129.361 269.132 129.082V120.068C269.131 119.789 269.02 119.522 268.822 119.324C268.624 119.127 268.357 119.016 268.077 119.015Z" fill="#E6E6E6"/>
<path d="M268.077 134.383H259.044C258.906 134.383 258.769 134.41 258.641 134.463C258.513 134.516 258.397 134.594 258.3 134.692C258.202 134.79 258.125 134.906 258.072 135.033C258.02 135.161 257.993 135.298 257.993 135.436V144.45C257.993 144.588 258.02 144.725 258.072 144.852C258.125 144.98 258.202 145.096 258.3 145.194C258.397 145.292 258.513 145.369 258.641 145.422C258.769 145.475 258.906 145.503 259.044 145.503H268.077C268.357 145.503 268.625 145.392 268.823 145.194C269.021 144.997 269.132 144.729 269.132 144.45V135.436C269.132 135.157 269.021 134.889 268.823 134.691C268.625 134.494 268.357 134.383 268.077 134.383Z" fill="#A1E3FF"/>
<path d="M287.044 72.9114H278.011C277.732 72.9123 277.465 73.0237 277.268 73.221C277.071 73.4184 276.96 73.6856 276.96 73.9642V82.9825C276.96 83.2606 277.071 83.5274 277.268 83.724C277.465 83.9207 277.732 84.0313 278.011 84.0313H287.044C287.323 84.0314 287.591 83.9211 287.789 83.7245C287.986 83.5279 288.098 83.261 288.099 82.9825V73.9642C288.098 73.6852 287.987 73.4179 287.789 73.2206C287.591 73.0234 287.324 72.9122 287.044 72.9114Z" fill="black"/>
<path d="M287.044 88.2792H278.011C277.732 88.2802 277.465 88.3916 277.268 88.5889C277.071 88.7863 276.96 89.0535 276.96 89.3321V98.3504C276.96 98.6285 277.071 98.8953 277.268 99.092C277.465 99.2886 277.732 99.3991 278.011 99.3992H287.044C287.323 99.3993 287.591 99.289 287.789 99.0924C287.986 98.8958 288.098 98.6289 288.099 98.3504V89.3321C288.098 89.0531 287.987 88.7858 287.789 88.5885C287.591 88.3912 287.324 88.28 287.044 88.2792Z" fill="black"/>
<path d="M287.044 103.647H278.011C277.732 103.648 277.465 103.76 277.268 103.957C277.071 104.154 276.96 104.421 276.96 104.7V113.714C276.96 113.852 276.987 113.989 277.039 114.117C277.092 114.244 277.169 114.36 277.267 114.458C277.365 114.556 277.48 114.634 277.608 114.687C277.736 114.74 277.873 114.767 278.011 114.767H287.044C287.324 114.767 287.592 114.656 287.79 114.459C287.988 114.261 288.099 113.993 288.099 113.714V104.7C288.098 104.421 287.987 104.154 287.789 103.956C287.591 103.759 287.324 103.648 287.044 103.647Z" fill="#E6E6E6"/>
<path d="M287.044 119.015H278.011C277.732 119.016 277.465 119.127 277.268 119.325C277.071 119.522 276.96 119.789 276.96 120.068V129.082C276.96 129.22 276.987 129.357 277.039 129.485C277.092 129.612 277.169 129.728 277.267 129.826C277.365 129.924 277.48 130.001 277.608 130.055C277.736 130.108 277.873 130.135 278.011 130.135H287.044C287.324 130.135 287.592 130.024 287.79 129.826C287.988 129.629 288.099 129.361 288.099 129.082V120.068C288.098 119.789 287.987 119.522 287.789 119.324C287.591 119.127 287.324 119.016 287.044 119.015Z" fill="#A1E3FF"/>
<path d="M287.044 134.383H278.011C277.873 134.383 277.736 134.41 277.608 134.463C277.48 134.516 277.365 134.594 277.267 134.692C277.169 134.79 277.092 134.906 277.039 135.033C276.987 135.161 276.96 135.298 276.96 135.436V144.45C276.96 144.588 276.987 144.725 277.039 144.852C277.092 144.98 277.169 145.096 277.267 145.194C277.365 145.292 277.48 145.369 277.608 145.422C277.736 145.475 277.873 145.503 278.011 145.503H287.044C287.324 145.503 287.592 145.392 287.79 145.194C287.988 144.997 288.099 144.729 288.099 144.45V135.436C288.099 135.157 287.988 134.889 287.79 134.691C287.592 134.494 287.324 134.383 287.044 134.383Z" fill="black"/>
<path d="M306.011 72.9114H296.978C296.699 72.9123 296.432 73.0237 296.235 73.221C296.038 73.4184 295.927 73.6856 295.927 73.9642V82.9825C295.927 83.2606 296.038 83.5274 296.235 83.724C296.432 83.9207 296.699 84.0313 296.978 84.0313H306.011C306.29 84.0314 306.558 83.9211 306.756 83.7245C306.953 83.5279 307.065 83.261 307.066 82.9825V73.9642C307.065 73.6852 306.954 73.4179 306.756 73.2206C306.558 73.0234 306.291 72.9122 306.011 72.9114Z" fill="black"/>
<path d="M306.011 88.2792H296.978C296.699 88.2802 296.432 88.3916 296.235 88.5889C296.038 88.7863 295.927 89.0535 295.927 89.3321V98.3504C295.927 98.6285 296.038 98.8953 296.235 99.092C296.432 99.2886 296.699 99.3991 296.978 99.3992H306.011C306.29 99.3993 306.558 99.289 306.756 99.0924C306.953 98.8958 307.065 98.6289 307.066 98.3504V89.3321C307.065 89.0531 306.954 88.7858 306.756 88.5885C306.558 88.3912 306.291 88.28 306.011 88.2792Z" fill="black"/>
<path d="M306.011 103.647H296.978C296.699 103.648 296.432 103.76 296.235 103.957C296.038 104.154 295.927 104.421 295.927 104.7V113.714C295.927 113.852 295.954 113.989 296.007 114.117C296.059 114.244 296.136 114.36 296.234 114.458C296.332 114.556 296.448 114.634 296.575 114.687C296.703 114.74 296.84 114.767 296.978 114.767H306.011C306.291 114.767 306.559 114.656 306.757 114.459C306.955 114.261 307.066 113.993 307.066 113.714V104.7C307.065 104.421 306.954 104.154 306.756 103.956C306.558 103.759 306.291 103.648 306.011 103.647Z" fill="#E6E6E6"/>
<path d="M306.011 119.015H296.978C296.699 119.016 296.432 119.127 296.235 119.325C296.038 119.522 295.927 119.789 295.927 120.068V129.082C295.927 129.22 295.954 129.357 296.007 129.485C296.059 129.612 296.136 129.728 296.234 129.826C296.332 129.924 296.448 130.001 296.575 130.055C296.703 130.108 296.84 130.135 296.978 130.135H306.011C306.291 130.135 306.559 130.024 306.757 129.826C306.955 129.629 307.066 129.361 307.066 129.082V120.068C307.065 119.789 306.954 119.522 306.756 119.324C306.558 119.127 306.291 119.016 306.011 119.015Z" fill="black"/>
<path d="M306.011 134.383H296.978C296.84 134.383 296.703 134.41 296.575 134.463C296.448 134.516 296.332 134.594 296.234 134.692C296.136 134.79 296.059 134.906 296.007 135.033C295.954 135.161 295.927 135.298 295.927 135.436V144.45C295.927 144.588 295.954 144.725 296.007 144.852C296.059 144.98 296.136 145.096 296.234 145.194C296.332 145.292 296.447 145.369 296.575 145.422C296.703 145.475 296.84 145.503 296.978 145.503H306.011C306.291 145.503 306.559 145.392 306.757 145.194C306.955 144.997 307.066 144.729 307.066 144.45V135.436C307.066 135.157 306.955 134.889 306.757 134.691C306.559 134.494 306.291 134.383 306.011 134.383Z" fill="black"/>
<path d="M324.978 72.9114H315.945C315.666 72.9123 315.399 73.0237 315.202 73.221C315.005 73.4184 314.894 73.6856 314.894 73.9642V82.9825C314.894 83.2606 315.005 83.5274 315.202 83.724C315.399 83.9207 315.666 84.0313 315.945 84.0313H324.978C325.257 84.0314 325.525 83.9211 325.723 83.7245C325.92 83.5279 326.032 83.261 326.033 82.9825V73.9642C326.032 73.6852 325.921 73.4179 325.723 73.2206C325.526 73.0234 325.258 72.9122 324.978 72.9114Z" fill="#E6E6E6"/>
<path d="M324.978 88.2792H315.945C315.666 88.2802 315.399 88.3916 315.202 88.5889C315.005 88.7863 314.894 89.0535 314.894 89.3321V98.3504C314.894 98.6285 315.005 98.8953 315.202 99.092C315.399 99.2886 315.666 99.3991 315.945 99.3992H324.978C325.257 99.3993 325.525 99.289 325.723 99.0924C325.92 98.8958 326.032 98.6289 326.033 98.3504V89.3321C326.032 89.0531 325.921 88.7858 325.723 88.5885C325.526 88.3912 325.258 88.28 324.978 88.2792Z" fill="black"/>
<path d="M324.978 103.647H315.945C315.666 103.648 315.399 103.76 315.202 103.957C315.005 104.154 314.894 104.421 314.894 104.7V113.714C314.894 113.852 314.921 113.989 314.974 114.117C315.026 114.244 315.103 114.36 315.201 114.458C315.299 114.556 315.415 114.634 315.542 114.687C315.67 114.74 315.807 114.767 315.945 114.767H324.978C325.258 114.767 325.526 114.656 325.724 114.459C325.922 114.261 326.033 113.993 326.033 113.714V104.7C326.032 104.421 325.921 104.154 325.723 103.956C325.526 103.759 325.258 103.648 324.978 103.647Z" fill="black"/>
<path d="M324.978 119.015H315.945C315.666 119.016 315.399 119.127 315.202 119.325C315.005 119.522 314.894 119.789 314.894 120.068V129.082C314.894 129.22 314.921 129.357 314.974 129.485C315.026 129.612 315.103 129.728 315.201 129.826C315.299 129.924 315.415 130.001 315.542 130.055C315.67 130.108 315.807 130.135 315.945 130.135H324.978C325.258 130.135 325.526 130.024 325.724 129.826C325.922 129.629 326.033 129.361 326.033 129.082V120.068C326.032 119.789 325.921 119.522 325.723 119.324C325.526 119.127 325.258 119.016 324.978 119.015Z" fill="black"/>
<path d="M324.978 134.383H315.945C315.807 134.383 315.67 134.41 315.542 134.463C315.415 134.516 315.299 134.594 315.201 134.692C315.103 134.79 315.026 134.906 314.974 135.033C314.921 135.161 314.894 135.298 314.894 135.436V144.45C314.894 144.588 314.921 144.725 314.974 144.852C315.026 144.98 315.103 145.096 315.201 145.194C315.299 145.292 315.415 145.369 315.542 145.422C315.67 145.475 315.807 145.503 315.945 145.503H324.978C325.258 145.503 325.526 145.392 325.724 145.194C325.922 144.997 326.033 144.729 326.033 144.45V135.436C326.033 135.157 325.922 134.889 325.724 134.691C325.526 134.494 325.258 134.383 324.978 134.383Z" fill="#E6E6E6"/>
<path d="M343.945 72.9114H334.912C334.633 72.9123 334.366 73.0237 334.169 73.221C333.972 73.4184 333.861 73.6856 333.861 73.9642V82.9825C333.862 83.2606 333.972 83.5274 334.169 83.724C334.366 83.9207 334.633 84.0312 334.912 84.0313H343.945C344.224 84.0314 344.492 83.9211 344.69 83.7245C344.887 83.5279 344.999 83.261 345 82.9825V73.9642C344.999 73.6852 344.888 73.4179 344.69 73.2206C344.493 73.0234 344.225 72.9122 343.945 72.9114Z" fill="#E6E6E6"/>
<path d="M343.945 88.2792H334.912C334.633 88.2802 334.366 88.3916 334.169 88.5889C333.972 88.7863 333.861 89.0535 333.861 89.3321V98.3504C333.862 98.6285 333.972 98.8953 334.169 99.092C334.366 99.2886 334.633 99.3991 334.912 99.3992H343.945C344.224 99.3993 344.492 99.289 344.69 99.0924C344.887 98.8958 344.999 98.6289 345 98.3504V89.3321C344.999 89.0531 344.888 88.7858 344.69 88.5885C344.493 88.3912 344.225 88.28 343.945 88.2792Z" fill="#E6E6E6"/>
<path d="M343.945 103.647H334.912C334.633 103.648 334.366 103.76 334.169 103.957C333.972 104.154 333.861 104.421 333.861 104.7V113.714C333.861 113.852 333.888 113.989 333.941 114.117C333.993 114.244 334.07 114.36 334.168 114.458C334.266 114.556 334.382 114.634 334.509 114.687C334.637 114.74 334.774 114.767 334.912 114.767H343.945C344.225 114.767 344.493 114.656 344.691 114.459C344.889 114.261 345 113.993 345 113.714V104.7C344.999 104.421 344.888 104.154 344.69 103.956C344.493 103.759 344.225 103.648 343.945 103.647Z" fill="black"/>
<path d="M343.945 119.015H334.912C334.633 119.016 334.366 119.127 334.169 119.325C333.972 119.522 333.861 119.789 333.861 120.068V129.082C333.861 129.22 333.888 129.357 333.941 129.485C333.993 129.612 334.07 129.728 334.168 129.826C334.266 129.924 334.382 130.001 334.509 130.055C334.637 130.108 334.774 130.135 334.912 130.135H343.945C344.225 130.135 344.493 130.024 344.691 129.826C344.889 129.629 345 129.361 345 129.082V120.068C344.999 119.789 344.888 119.522 344.69 119.324C344.493 119.127 344.225 119.016 343.945 119.015Z" fill="#E6E6E6"/>
<path d="M343.945 134.383H334.912C334.774 134.383 334.637 134.41 334.509 134.463C334.382 134.516 334.266 134.594 334.168 134.692C334.07 134.79 333.993 134.906 333.941 135.033C333.888 135.161 333.861 135.298 333.861 135.436V144.45C333.861 144.588 333.888 144.725 333.941 144.852C333.993 144.98 334.07 145.096 334.168 145.194C334.266 145.292 334.382 145.369 334.509 145.422C334.637 145.475 334.774 145.503 334.912 145.503H343.945C344.225 145.503 344.493 145.392 344.691 145.194C344.889 144.997 345 144.729 345 144.45V135.436C345 135.157 344.889 134.889 344.691 134.691C344.493 134.494 344.225 134.383 343.945 134.383Z" fill="#E6E6E6"/>
<path d="M136.329 267.289H136.077L136.292 267.26L136.329 267.289Z" fill="#2F2E41"/>
<path d="M114.717 99.2352C130.022 99.2352 142.43 86.8483 142.43 71.5682C142.43 56.2881 130.022 43.9012 114.717 43.9012C99.4112 43.9012 87.0037 56.2881 87.0037 71.5682C87.0037 86.8483 99.4112 99.2352 114.717 99.2352Z" fill="#FFB6B6"/>
<path d="M138.986 51.2832C138.986 51.2832 146.234 37.4497 130.288 36.1921C130.288 36.1921 116.693 23.8806 102.837 33.9414C102.837 33.9414 95.2787 33.9414 91.1456 42.48C91.1456 42.48 85.2012 40.2293 83.8948 46.2528C83.8948 46.2528 79.5451 58.8288 83.8948 70.1471C88.2446 81.4655 89.6894 82.723 89.6894 82.723C89.6894 82.723 82.5419 58.9935 99.9395 57.7359C117.337 56.4783 136.805 45.624 138.255 59.4575C139.705 73.291 141.887 76.6995 141.887 76.6995C141.887 76.6995 155.658 56.9424 138.986 51.2832Z" fill="#2F2E41"/>
<path d="M186.404 139.753L186.315 140.222L185.313 145.503L178.389 182.03L177.98 184.18L177.12 188.727L175.943 194.931L173.335 208.679L172.589 212.62L172.309 214.098L172.212 214.616L171.437 218.694L171.202 219.925L169.311 233.908L167.66 246.093L173.185 251.608L169.891 254.897L167.729 267.26L167.733 267.288H79.4978C75.9283 264.98 72.4101 262.6 68.9434 260.149L69.6695 254.722C69.6695 254.722 72.1681 245.032 71.1175 243.874C70.0711 242.716 67.7752 240.646 67.7752 240.646L70.6673 233.908L71.0689 232.972L70.3955 219.03L70.3793 218.694L70.1563 214.098L70.1278 213.506L70.0832 212.62L69.2273 194.931L69.2111 194.64L68.9516 189.278L68.7081 184.18L68.6027 182.03L67.5603 160.514L66.8545 145.904L66.2379 133.184L68.7163 132.346L95.224 123.352L106.204 109.102L129.057 109.272L140.244 109.357L158.911 126.64L163.158 128.665L163.191 128.681L166.237 130.135L173.96 133.816L182.125 137.712L186.315 139.708L186.404 139.753Z" fill="#CACACA"/>
<path d="M109.157 225.781C107.483 226.429 105.686 226.702 103.894 226.582C102.102 226.461 100.359 225.95 98.7862 225.084C97.2136 224.218 95.8504 223.018 94.7924 221.569C93.7345 220.12 93.0077 218.458 92.6631 216.698L49.4401 210.576L64.4656 193.608L103.207 202.023C106.207 201.641 109.242 202.37 111.739 204.074C114.235 205.777 116.019 208.335 116.753 211.263C117.486 214.192 117.118 217.287 115.718 219.963C114.318 222.639 111.984 224.709 109.157 225.781Z" fill="#FFB6B6"/>
<path d="M89.8858 194.931C89.0852 193.918 87.9517 193.22 86.6855 192.959L68.9515 189.278L67.1303 188.902C66.0718 188.681 65.072 188.24 64.1961 187.607C63.3203 186.974 62.5882 186.164 62.0477 185.229C61.4871 184.247 61.148 183.155 61.054 182.03C60.9694 181.006 61.0922 179.976 61.415 179.001L67.5602 160.515L71.5475 148.52C72.0307 147.073 72.3159 145.568 72.3953 144.045C72.6174 139.831 71.3113 135.677 68.7162 132.346C66.4347 129.418 63.2703 127.3 59.6904 126.305C56.1106 125.311 52.3052 125.492 48.8365 126.823C48.7351 126.859 48.6296 126.899 48.5282 126.94C46.0406 127.932 43.8181 129.487 42.0364 131.484C40.2546 133.481 38.9624 135.864 38.2618 138.445L33.9298 154.177L24.9938 186.61C24.0993 189.859 23.9186 193.263 24.464 196.589C25.0095 199.914 26.2683 203.083 28.1542 205.878C30.0401 208.673 32.5086 211.028 35.3908 212.782C38.273 214.536 41.5008 215.648 44.8533 216.041L70.3955 219.03L82.2154 220.415C83.5822 220.579 84.9607 220.223 86.0763 219.418C87.1918 218.612 87.9626 217.417 88.2349 216.07C88.254 215.996 88.2689 215.922 88.2795 215.847L88.5635 214.098L90.9688 199.366L90.9932 199.216C91.1185 198.464 91.0847 197.694 90.894 196.956C90.7033 196.219 90.3598 195.529 89.8858 194.931Z" fill="#CACACA"/>
<path d="M136.689 226.253C138.438 226.659 140.255 226.676 142.012 226.305C143.769 225.933 145.423 225.182 146.858 224.103C148.292 223.024 149.473 221.645 150.315 220.061C151.158 218.478 151.643 216.729 151.735 214.939L193.662 202.793L176.389 188.11L139.223 201.895C136.2 201.939 133.298 203.089 131.067 205.126C128.836 207.164 127.431 209.948 127.119 212.95C126.806 215.953 127.608 218.965 129.372 221.417C131.135 223.869 133.739 225.59 136.689 226.253Z" fill="#FFB6B6"/>
<path d="M214.478 175.623L194.537 129.807C192.906 126.046 189.993 122.982 186.315 121.161C185.178 120.603 183.984 120.168 182.754 119.865C182.563 119.817 182.373 119.772 182.182 119.736C179.573 119.167 176.867 119.217 174.28 119.882C171.916 120.488 169.707 121.585 167.796 123.101C165.885 124.617 164.316 126.519 163.19 128.681C163.178 128.699 163.167 128.718 163.158 128.738C161.901 131.165 161.233 133.854 161.207 136.586C161.181 139.319 161.798 142.019 163.008 144.47L163.255 144.964L177.347 173.218C177.828 174.184 178.099 175.241 178.142 176.319C178.186 177.397 178 178.472 177.598 179.473C177.196 180.475 176.586 181.38 175.809 182.13C175.031 182.88 174.104 183.457 173.088 183.823L172.098 184.18L154.299 190.598C152.964 191.074 151.865 192.049 151.235 193.317C150.605 194.585 150.492 196.048 150.92 197.397L150.965 197.539L155.954 213.478C155.978 213.551 156.003 213.624 156.031 213.697C156.075 213.834 156.129 213.968 156.193 214.098C156.724 215.285 157.661 216.244 158.836 216.803C160.012 217.362 161.349 217.484 162.606 217.147L172.212 214.616L174.171 214.098L198.975 207.558C202.238 206.697 205.277 205.142 207.883 202.999C210.489 200.857 212.6 198.178 214.073 195.145C215.545 192.112 216.343 188.798 216.413 185.428C216.483 182.059 215.823 178.714 214.478 175.623Z" fill="#CACACA"/>
<path d="M18.2118 214.098C23.9597 221.097 30.1586 227.714 36.7692 233.908H220.1C221.866 233.911 223.559 234.613 224.808 235.86C226.056 237.107 226.758 238.798 226.76 240.561L227.024 286.94C238.302 281.767 248.864 275.162 258.448 267.288C261.109 265.105 263.687 262.828 266.183 260.457C267.818 258.91 269.413 257.325 270.969 255.702C282.637 243.568 292.084 229.487 298.884 214.098H18.2118Z" fill="black"/>
<path d="M270.969 255.702C269.416 257.326 267.82 258.911 266.183 260.456H227.158V255.702H270.969Z" fill="#A1E3FF"/>
<path d="M186.039 103.647C185.847 103.292 185.561 102.995 185.214 102.789C184.866 102.582 184.469 102.473 184.064 102.473H51.0837C50.4875 102.474 49.9162 102.712 49.495 103.133C49.0738 103.554 48.837 104.125 48.8365 104.72V184.18H186.315V104.72C186.317 104.345 186.222 103.975 186.039 103.647Z" fill="black"/>
<path d="M48.7161 182.029V191.834C48.7161 192.24 48.7963 192.643 48.9521 193.019C49.1079 193.394 49.3363 193.735 49.6242 194.023C49.9121 194.31 50.2539 194.538 50.6301 194.694C51.0063 194.849 51.4095 194.929 51.8166 194.929H102.559V214.281H101.885C101.832 214.281 101.78 214.291 101.731 214.311C101.682 214.331 101.638 214.361 101.6 214.398C101.563 214.436 101.533 214.48 101.513 214.529C101.493 214.578 101.482 214.63 101.482 214.683V216.029C101.482 216.081 101.493 216.134 101.513 216.183C101.533 216.231 101.563 216.276 101.6 216.313C101.638 216.35 101.682 216.38 101.731 216.4C101.78 216.42 101.832 216.431 101.885 216.431H133.385C133.438 216.431 133.49 216.42 133.539 216.4C133.588 216.38 133.633 216.35 133.67 216.313C133.707 216.276 133.737 216.231 133.757 216.183C133.778 216.134 133.788 216.081 133.788 216.029V214.683C133.788 214.63 133.778 214.578 133.757 214.529C133.737 214.48 133.707 214.436 133.67 214.398C133.633 214.361 133.588 214.331 133.539 214.311C133.49 214.291 133.438 214.281 133.385 214.281H132.711V194.929H183.454C183.861 194.929 184.264 194.849 184.64 194.694C185.016 194.538 185.358 194.31 185.646 194.023C185.934 193.735 186.162 193.394 186.318 193.019C186.474 192.643 186.554 192.24 186.554 191.834V182.029H48.7161Z" fill="black"/>
<path d="M115.97 153.886C122.983 153.886 128.668 148.21 128.668 141.208C128.668 134.206 122.983 128.531 115.97 128.531C108.956 128.531 103.271 134.206 103.271 141.208C103.271 148.21 108.956 153.886 115.97 153.886Z" fill="black"/>
<path d="M148.324 70.0564H146.296C146.296 54.7493 131.122 44.7186 115.813 44.7105C113.587 44.704 111.365 44.9197 109.181 45.3544C106.723 45.8444 104.172 46.4316 101.665 47.1969C91.7801 50.2219 82.613 56.0694 82.613 70.0564C82.6109 72.7728 82.9571 75.4783 83.6433 78.1069L81.68 78.6171C80.9519 75.8216 80.5838 72.9449 80.5848 70.0564C80.5848 57.835 85.6105 49.4403 94.2909 44.4351C98.8542 41.803 104.423 40.1062 110.804 39.2801C113.459 38.9275 116.143 38.8461 118.815 39.0371C136.419 40.3006 148.324 53.7774 148.324 70.0564Z" fill="black"/>
<path d="M151.703 71.1781L150.904 65.282C150.707 63.7931 149.989 62.4217 148.876 61.4107C148.162 60.7516 147.307 60.2633 146.376 59.9827C145.444 59.7021 144.462 59.6365 143.501 59.7909L142.232 59.965C141.884 60.0107 141.55 60.1248 141.247 60.3006C140.944 60.4765 140.679 60.7107 140.467 60.9896C140.254 61.2675 140.098 61.5849 140.008 61.9234C139.918 62.2619 139.897 62.6147 139.944 62.9617L141.79 76.5437C141.866 77.0973 142.114 77.613 142.5 78.0178C142.886 78.4226 143.389 78.696 143.939 78.7993C144.102 78.8319 144.268 78.8482 144.434 78.8479C144.554 78.8479 144.673 78.8398 144.791 78.8236L146.211 78.6333C147.077 78.5186 147.91 78.2285 148.659 77.7807C149.408 77.3329 150.057 76.737 150.567 76.0295C150.677 75.8756 150.782 75.7177 150.88 75.5557C151.64 74.2306 151.93 72.6882 151.703 71.1781Z" fill="black"/>
<path d="M141.412 60.2121C141.04 60.3927 140.716 60.6592 140.467 60.9896C140.254 61.2675 140.098 61.5849 140.008 61.9234C139.918 62.2619 139.897 62.6148 139.944 62.9617L141.79 76.5438C141.866 77.0973 142.114 77.613 142.5 78.0178C142.886 78.4226 143.389 78.696 143.939 78.7993L141.412 60.2121Z" fill="#A1E3FF"/>
<path d="M151.703 71.1781L150.904 65.282C150.707 63.793 149.989 62.4217 148.876 61.4107L150.713 74.9239C150.741 75.1409 150.797 75.3532 150.88 75.5557C151.64 74.2306 151.93 72.6882 151.703 71.1781Z" fill="black"/>
<path d="M145.388 75.4263C145.943 75.3512 146.222 74.0327 146.011 72.4813C145.8 70.93 145.179 69.7333 144.624 69.8085C144.069 69.8837 143.79 71.2022 144.001 72.7535C144.212 74.3048 144.833 75.5015 145.388 75.4263Z" fill="black"/>
<path d="M144.171 68.1372C144.726 68.0621 145.005 66.7435 144.794 65.1922C144.583 63.6409 143.962 62.4442 143.407 62.5194C142.852 62.5945 142.573 63.9131 142.784 65.4644C142.995 67.0157 143.616 68.2124 144.171 68.1372Z" fill="black"/>
<path d="M151.878 70.9719C152.433 70.8967 152.712 69.5782 152.501 68.0269C152.29 66.4755 151.669 65.2789 151.114 65.354C150.559 65.4292 150.28 66.7477 150.491 68.299C150.702 69.8504 151.323 71.047 151.878 70.9719Z" fill="black"/>
<path d="M115.813 44.7105C113.587 44.704 111.365 44.9197 109.181 45.3544C106.723 45.8444 104.172 46.4316 101.665 47.1969C97.7509 47.0066 94.871 45.9942 94.2909 44.4351C98.8542 41.803 104.423 40.1062 110.804 39.2801C113.459 38.9275 116.143 38.8461 118.815 39.0371C119.098 39.2027 119.342 39.4261 119.533 39.6927C119.723 39.9593 119.854 40.2631 119.918 40.5841C120.109 41.9933 118.499 43.4916 115.813 44.7105Z" fill="black"/>
<path d="M89.9183 84.1082L86.795 71.1457C86.6836 70.6781 86.4363 70.2537 86.0841 69.9259C85.7319 69.5981 85.2906 69.3814 84.8155 69.3032C84.6813 69.2824 84.5457 69.2715 84.4099 69.2708C84.2185 69.2715 84.0279 69.2946 83.842 69.3397L82.6332 69.6312C81.0769 70.007 79.7335 70.9838 78.8977 72.3473C78.062 73.7108 77.8022 75.3496 78.1754 76.9041L79.5748 82.7193C79.8943 84.0883 80.6553 85.3147 81.7409 86.21C81.9168 86.3517 82.101 86.4829 82.2925 86.6028C82.9724 87.0282 83.7308 87.3133 84.523 87.4413C85.3151 87.5693 86.1249 87.5375 86.9045 87.3479L88.1092 87.0563C88.4277 86.9821 88.7274 86.8428 88.9894 86.6473C89.379 86.3637 89.6753 85.9709 89.8407 85.5188C90.0061 85.0667 90.0331 84.5757 89.9183 84.1082Z" fill="black"/>
<path d="M83.3705 81.6964C83.915 81.5656 84.059 80.2257 83.6921 78.7036C83.3253 77.1815 82.5864 76.0537 82.0419 76.1845C81.4974 76.3153 81.3534 77.6552 81.7203 79.1773C82.0872 80.6994 82.826 81.8273 83.3705 81.6964Z" fill="black"/>
<path d="M79.3143 82.9113C79.8588 82.7805 80.0028 81.4405 79.6359 79.9184C79.269 78.3963 78.5302 77.2685 77.9857 77.3993C77.4412 77.5301 77.2972 78.8701 77.6641 80.3922C78.031 81.9142 78.7698 83.0421 79.3143 82.9113Z" fill="black"/>
<path d="M90.117 84.0597L86.9937 71.0972C86.872 70.5912 86.6035 70.1323 86.2219 69.7779C85.8402 69.4235 85.3623 69.1893 84.848 69.1048L89.1111 86.8093C89.5321 86.5015 89.8524 86.076 90.0314 85.5866C90.2104 85.0973 90.2402 84.5659 90.117 84.0597Z" fill="#A1E3FF"/>
<path d="M78.8812 74.3367C78.795 73.9763 78.6333 73.6381 78.4066 73.3446C77.9676 74.4798 77.8869 75.7219 78.1754 76.9041L79.5748 82.7192C79.8944 84.0883 80.6554 85.3146 81.7409 86.2099L78.8812 74.3367Z" fill="black"/>
</g>
<defs>
<clipPath id="clip0_17_88">
<rect width="345" height="300" fill="white"/>
</clipPath>
</defs>
</svg>
