<svg width="523" height="520" viewBox="0 0 523 520" fill="none" xmlns="http://www.w3.org/2000/svg">
<g clip-path="url(#clip0_2082_85)">
<path d="M347.674 519.891H28.5311C20.9668 519.882 13.7147 516.874 8.36598 511.525C3.01722 506.176 0.00855371 498.924 1.52588e-05 491.36V28.5311C0.00855371 20.9668 3.01722 13.7148 8.36598 8.366C13.7147 3.01723 20.9668 0.00853845 28.5311 0H347.674C355.238 0.00852786 362.49 3.01722 367.839 8.36598C373.188 13.7147 376.196 20.9668 376.205 28.5311V491.36C376.196 498.924 373.188 506.176 367.839 511.525C362.49 516.874 355.238 519.882 347.674 519.891Z" fill="#3F3D56"/>
<path d="M348.235 501.687H27.9693C25.6376 501.685 23.4021 500.757 21.7533 499.108C20.1045 497.46 19.177 495.224 19.1743 492.892V26.9986C19.177 24.6669 20.1045 22.4314 21.7533 20.7825C23.4021 19.1337 25.6376 18.2063 27.9693 18.2036H348.235C350.567 18.2063 352.803 19.1337 354.452 20.7825C356.1 22.4314 357.028 24.6669 357.03 26.9986V492.892C357.028 495.224 356.1 497.46 354.452 499.108C352.803 500.757 350.567 501.685 348.235 501.687Z" fill="white"/>
<path d="M186.889 11.1648C188.229 11.1648 189.316 10.0781 189.316 8.73768C189.316 7.39721 188.229 6.31055 186.889 6.31055C185.548 6.31055 184.462 7.39721 184.462 8.73768C184.462 10.0781 185.548 11.1648 186.889 11.1648Z" fill="white"/>
<path d="M273.531 215.233L262.928 183.479L262.749 182.927L307.398 154.724L309.772 157.922L322.207 174.667L317.661 188.21L305.913 223.201L305.398 224.739L327.155 240.915C328.017 242.505 328.733 243.955 329.316 245.288C335.811 260.088 326.197 259.416 326.197 259.416L281.948 240.449L273.531 215.233Z" fill="#FFB7B7"/>
<path d="M296.956 221.144L295.005 215.298L285.431 186.603L283.437 180.621L281.762 175.615L303.594 161.821L326.411 147.412L341.22 167.355L336.732 180.728L334.55 187.225L331.177 197.275L324.411 217.427L346.168 233.603C347.814 236.49 349.114 239.561 350.04 242.753C350.418 244.085 350.597 245.465 350.572 246.85C350.608 247.558 350.492 248.266 350.234 248.927C349.976 249.588 349.58 250.187 349.073 250.683C348.566 251.18 347.96 251.563 347.294 251.808C346.628 252.053 345.918 252.154 345.21 252.105L300.961 233.138L296.956 221.144Z" fill="#FFB7B7"/>
<path opacity="0.15" d="M294.88 222.439L292.312 195.37L305.108 188.432L305.945 189.977L294.17 196.361L296.551 221.455L322.712 239.371L321.72 240.82L294.88 222.439Z" fill="black"/>
<path opacity="0.15" d="M322.791 221.532L321.747 222.945L348.148 242.451L349.192 241.039L322.791 221.532Z" fill="black"/>
<path d="M321.218 248.065L188.403 154.698L54.232 247.195L186.402 303.007L321.218 248.065Z" fill="white"/>
<path d="M226.128 168.815L270.851 125.088L350.838 119.684L450.265 214.628L522.708 254.273L502.299 314.288L414.862 272.783C397.06 271.475 385.606 265.568 378.362 259.356C375.87 257.222 373.625 254.817 371.667 252.186C369.523 249.396 367.851 246.273 366.716 242.942L331.177 197.275L323.851 187.851L319.105 181.753L303.594 161.821L302.477 160.388L276.125 159.691L262.411 177.696L252.777 190.331C252.553 194.781 250.946 199.05 248.18 202.543C239.541 213.051 222.026 210.999 222.026 210.999L226.128 168.815Z" fill="#FFB7B7"/>
<path d="M54.7439 247.109H54.8395L109.693 270.532L184.744 302.579C185.037 302.703 185.352 302.767 185.67 302.769C185.988 302.77 186.303 302.709 186.598 302.589L264.028 270.465L320.229 247.148L320.315 247.109H320.41C321.297 247.11 322.147 247.463 322.774 248.09C323.401 248.717 323.754 249.567 323.755 250.454V395.711C323.754 396.597 323.401 397.447 322.774 398.075C322.147 398.702 321.297 399.054 320.41 399.055H54.7439C53.8571 399.054 53.0069 398.702 52.3799 398.075C51.7528 397.447 51.4002 396.597 51.3992 395.711V250.454C51.4002 249.567 51.7528 248.717 52.3799 248.09C53.0069 247.463 53.8571 247.11 54.7439 247.109Z" fill="white"/>
<path d="M54.5054 248.065C54.6029 248.065 54.6981 248.035 54.7781 247.98L186.923 155.95C187.325 155.671 187.803 155.523 188.292 155.523C188.781 155.524 189.259 155.675 189.66 155.955L320.853 247.979C320.957 248.051 321.085 248.079 321.209 248.057C321.334 248.035 321.445 247.965 321.517 247.861C321.59 247.757 321.619 247.629 321.597 247.505C321.575 247.38 321.505 247.269 321.402 247.196L190.209 155.172C189.647 154.78 188.979 154.569 188.294 154.568C187.609 154.567 186.94 154.776 186.377 155.166L54.232 247.195C54.1485 247.253 54.0858 247.337 54.053 247.433C54.0201 247.529 54.0188 247.633 54.0493 247.73C54.0798 247.828 54.1405 247.912 54.2226 247.973C54.3046 248.033 54.4037 248.065 54.5054 248.065Z" fill="#3F3D56"/>
<path d="M313.356 251.327L188.162 158.543L62.019 257.929L181.712 328.885L246.695 314.073L313.356 251.327Z" fill="#E6E6E6"/>
<path d="M241.21 372.711H303.058C303.824 372.711 304.559 372.408 305.101 371.867C305.643 371.326 305.948 370.592 305.949 369.826C305.95 369.06 305.647 368.325 305.107 367.783C304.566 367.24 303.833 366.934 303.067 366.932H241.21C240.444 366.932 239.709 367.236 239.167 367.777C238.625 368.318 238.32 369.052 238.319 369.817C238.318 370.583 238.621 371.318 239.161 371.861C239.702 372.403 240.435 372.709 241.201 372.711H241.21Z" fill="#A1E3FF"/>
<path d="M280.868 360.288H303.058C303.824 360.289 304.559 359.985 305.101 359.444C305.643 358.903 305.948 358.169 305.949 357.403C305.95 356.637 305.647 355.902 305.107 355.36C304.566 354.817 303.833 354.511 303.067 354.509H280.868C280.103 354.509 279.368 354.813 278.826 355.354C278.284 355.895 277.979 356.629 277.978 357.395C277.977 358.16 278.28 358.895 278.82 359.438C279.36 359.98 280.094 360.286 280.86 360.288H280.868Z" fill="#A1E3FF"/>
<path d="M186.402 303.006C186.872 303.007 187.337 302.916 187.773 302.738L264.984 270.701V170.419C264.982 169.533 264.63 168.683 264.003 168.056C263.376 167.428 262.526 167.076 261.639 167.075H113.515C112.629 167.076 111.779 167.428 111.151 168.056C110.524 168.683 110.172 169.533 110.171 170.419V270.771L110.316 270.833L184.989 302.722C185.436 302.91 185.917 303.007 186.402 303.006Z" fill="white"/>
<path d="M184.895 302.942L109.932 270.929V170.42C109.933 169.469 110.311 168.559 110.983 167.887C111.654 167.215 112.565 166.837 113.515 166.836H261.639C262.589 166.837 263.5 167.215 264.172 167.887C264.843 168.559 265.221 169.469 265.222 170.42V270.861L187.864 302.959C186.911 303.347 185.844 303.34 184.895 302.942ZM264.267 170.42C264.266 169.723 263.989 169.055 263.496 168.562C263.004 168.07 262.336 167.792 261.639 167.792H113.515C112.819 167.792 112.151 168.07 111.658 168.562C111.165 169.055 110.888 169.723 110.887 170.42V270.298L185.269 302.062C185.981 302.361 186.783 302.366 187.499 302.076L264.267 270.222L264.267 170.42Z" fill="#3F3D56"/>
<path d="M52.116 250.454V395.711C52.117 396.597 52.4697 397.447 53.0967 398.075C53.7238 398.702 54.5739 399.054 55.4607 399.055H321.127C322.014 399.054 322.864 398.702 323.491 398.075C324.118 397.447 324.471 396.597 324.472 395.711V250.454C324.471 249.567 324.118 248.717 323.491 248.09C322.864 247.463 322.014 247.11 321.127 247.109H321.031L320.946 247.148L264.745 270.465L187.314 302.589C187.02 302.709 186.705 302.77 186.386 302.768C186.068 302.767 185.754 302.703 185.46 302.579L110.41 270.532L55.5564 247.109H55.4607C54.5739 247.11 53.7238 247.463 53.0967 248.09C52.4697 248.717 52.117 249.567 52.116 250.454ZM53.0716 250.454C53.073 249.837 53.3122 249.245 53.7393 248.8C54.1665 248.355 54.7488 248.092 55.3651 248.065L110.41 271.569L185.083 303.458C185.913 303.807 186.848 303.812 187.682 303.473L264.745 271.497L321.218 248.065C321.835 248.09 322.419 248.352 322.847 248.797C323.276 249.243 323.515 249.836 323.516 250.454V395.711C323.516 396.344 323.264 396.952 322.816 397.4C322.368 397.848 321.761 398.099 321.127 398.1H55.4607C54.8271 398.099 54.2196 397.848 53.7716 397.4C53.3236 396.952 53.0719 396.344 53.0716 395.711V250.454Z" fill="#3F3D56"/>
<path d="M126.482 204.56H179.042C180.056 204.56 181.028 204.157 181.745 203.441C182.462 202.724 182.865 201.751 182.865 200.738C182.865 199.724 182.462 198.752 181.745 198.035C181.028 197.318 180.056 196.915 179.042 196.915H126.482C125.469 196.915 124.496 197.318 123.78 198.035C123.063 198.752 122.66 199.724 122.66 200.738C122.66 201.751 123.063 202.724 123.78 203.441C124.496 204.157 125.469 204.56 126.482 204.56Z" fill="#A1E3FF"/>
<path d="M126.514 188.315H151.838C152.852 188.315 153.824 187.912 154.541 187.195C155.258 186.478 155.661 185.506 155.661 184.492C155.661 183.478 155.258 182.506 154.541 181.789C153.824 181.072 152.852 180.669 151.838 180.669H126.514C125.5 180.669 124.528 181.072 123.811 181.789C123.094 182.506 122.691 183.478 122.691 184.492C122.691 185.506 123.094 186.478 123.811 187.195C124.528 187.912 125.5 188.315 126.514 188.315Z" fill="#A1E3FF"/>
<path d="M148.266 242.786H228.54C229.553 242.786 230.526 242.383 231.243 241.666C231.959 240.949 232.362 239.977 232.362 238.963C232.362 237.949 231.959 236.977 231.243 236.26C230.526 235.543 229.553 235.141 228.54 235.141H148.266C147.253 235.141 146.28 235.543 145.563 236.26C144.847 236.977 144.444 237.949 144.444 238.963C144.444 239.977 144.847 240.949 145.563 241.666C146.28 242.383 147.253 242.786 148.266 242.786Z" fill="#CCCCCC"/>
<path d="M148.266 260.465H228.54C229.553 260.465 230.526 260.062 231.243 259.345C231.959 258.628 232.362 257.656 232.362 256.642C232.362 255.629 231.959 254.656 231.243 253.939C230.526 253.223 229.553 252.82 228.54 252.82H148.266C147.253 252.82 146.28 253.223 145.563 253.939C144.847 254.656 144.444 255.629 144.444 256.642C144.444 257.656 144.847 258.628 145.563 259.345C146.28 260.062 147.253 260.465 148.266 260.465Z" fill="#CCCCCC"/>
<path opacity="0.1" d="M334.55 187.226L350.493 186.304L414.197 264.812L391.691 261.37L378.362 259.356C375.87 257.222 373.625 254.818 371.667 252.186L356.856 247.789L350.04 242.753C350.467 244.389 334.55 187.226 334.55 187.226Z" fill="black"/>
<path d="M232.637 184.727C233.094 181.791 234.694 179.155 237.088 177.394C239.482 175.634 242.476 174.892 245.415 175.332L262.411 177.696L283.437 180.621L299.687 182.88L319.105 181.753L336.731 180.728L347.145 180.127L416.387 265.463L356.856 247.789L350.04 242.753L320.197 220.711C320.197 220.711 310.419 218.909 295.005 215.298C292.712 214.754 266.764 208.242 254.575 204.701C252.213 204.013 250.095 203.294 248.18 202.544C234.59 197.194 231.872 190.337 232.637 184.727Z" fill="#FFB7B7"/>
<path opacity="0.15" d="M242.371 195.387C242.431 195.38 248.498 194.625 251.087 190.182C252.832 187.19 252.656 183.159 250.566 178.204L252.184 177.521C254.504 183.02 254.643 187.581 252.598 191.079C249.556 196.281 242.854 197.1 242.571 197.133L242.371 195.387Z" fill="black"/>
<path opacity="0.15" d="M303.71 183.525L303.706 181.769L334.938 181.719L302.012 161.133L302.943 159.643L341.046 183.465L303.71 183.525Z" fill="black"/>
</g>
<defs>
<clipPath id="clip0_2082_85">
<rect width="522.708" height="519.891" fill="white"/>
</clipPath>
</defs>
</svg>
